<?xml version="1.0" encoding="utf-8"?>
<!-- Generator: Adobe Illustrator 19.1.0, SVG Export Plug-In . SVG Version: 6.00 Build 0)  -->
<svg version="1.1" id="Layer_2" xmlns="http://www.w3.org/2000/svg" xmlns:xlink="http://www.w3.org/1999/xlink" x="0px" y="0px"
	 viewBox="0 0 381 214.5" style="enable-background:new 0 0 381 214.5;" xml:space="preserve">
<style type="text/css">
	.st0{fill:url(#SVGID_1_);}
	.st1{fill:url(#SVGID_2_);}
	.st2{fill:url(#SVGID_3_);}
	.st3{fill:#E46D25;}
	.st4{fill:url(#SVGID_4_);}
	.st5{fill:url(#SVGID_5_);}
	.st6{fill:url(#SVGID_6_);}
	.st7{fill:#606A70;}
	.st8{fill:#5E6A70;}
</style>
<g>
	<g>
		<linearGradient id="SVGID_1_" gradientUnits="userSpaceOnUse" x1="279.0659" y1="93.9023" x2="279.0659" y2="113.8094">
			<stop  offset="0" style="stop-color:#5F6970"/>
			<stop  offset="1" style="stop-color:#35434B"/>
		</linearGradient>
		<path class="st0" d="M321.1,53.4c0-4.7-3.7-8.5-8.3-8.5h-25.7l0-7.1l-16.6,0l0,7.1h-25.2c-4.6,0-8.3,3.8-8.3,8.5v5.5
			c0,0.3,0,0.6,0,0.9l0,7.8h33.3v14.8h-28.3l0,5.5l28.3,0v30c5.6-0.4,11.1-0.9,16.6-1.4V88l29,0l0-5.6h-29.1V67.6l33.9-0.1
			c0,0,0-4.2,0-8.1c0-0.2,0-0.3,0-0.5V53.4z M308.7,62.4c0,0-2.2,0-3.1,0h-51.7c-1,0-3.2,0-3.2,0s0-4.2,0-5.5c0-3.1,1.4-5.6,3.2-5.6
			h51.7c1.7,0,3.2,2.5,3.2,5.6C308.7,58.4,308.7,62.4,308.7,62.4z"/>
	</g>
	<linearGradient id="SVGID_2_" gradientUnits="userSpaceOnUse" x1="201.4663" y1="99.0665" x2="201.4663" y2="114.7329">
		<stop  offset="0" style="stop-color:#5F6970"/>
		<stop  offset="1" style="stop-color:#35434B"/>
	</linearGradient>
	<path class="st1" d="M220.9,37.8h-3.3c-8.3-0.1-11.8,0.1-13.3,2.5v0.4V57h-31.6v5.5h31.6v57.2c5.1,0.1,10.3,0.2,15.3,0.2
		c0,0,0,0,0,0c0.4,0,0.9,0,1.3,0V62.5h9.3V57h-9.3V37.8z"/>
	<linearGradient id="SVGID_3_" gradientUnits="userSpaceOnUse" x1="157.1933" y1="96.0684" x2="157.1933" y2="109.084">
		<stop  offset="0" style="stop-color:#5F6970"/>
		<stop  offset="1" style="stop-color:#35434B"/>
	</linearGradient>
	<path class="st2" d="M161.2,37.8c0,0-0.2,10.7-9,19.6c-8.1,8.2-12.2,12.2-15,14c-0.8,0.5,9.3-1,15.8-4.5V116
		c5.4,0.9,10.9,1.7,16.6,2.2V54.6c4.2-4.7,7.3-10.3,7.4-16.9L161.2,37.8z"/>
	<g>
		<path class="st3" d="M174.6,80.7c0,0.6,0.3,1.1,0.7,1.8c0.9,1.3,2.5,3.7,5.2,6.4s5.3,4.4,6.5,5.3c0.6,0.4,1.2,0.6,1.7,0.6
			c0,0,0.9,0.1,1.8-0.6c1.1-0.9,3.8-2.6,6.5-5.3c2.7-2.7,4.3-5.1,5.2-6.4c0.4-0.6,0.7-1.2,0.7-1.8h0c0,0,0,0,0,0c0,0,0,0,0,0l0,0
			c0-0.6-0.3-1.1-0.7-1.7c-0.9-1.3-2.5-3.7-5.2-6.4c-2.7-2.7-5.3-4.5-6.5-5.3c-0.9-0.7-1.8-0.6-1.8-0.6c-0.6,0-1.2,0.2-1.7,0.6
			c-1.2,0.9-3.8,2.6-6.5,5.3c-2.7,2.7-4.3,5.1-5.2,6.4C174.9,79.5,174.7,80.1,174.6,80.7L174.6,80.7
			C174.6,80.6,174.6,80.6,174.6,80.7C174.6,80.7,174.6,80.7,174.6,80.7L174.6,80.7z"/>
		<path class="st3" d="M295.6,100.6c0,0.4,0.2,0.9,0.5,1.3c0.7,1,1.9,2.8,3.9,4.8c2,2,4,3.3,4.9,4c0.4,0.3,0.9,0.5,1.3,0.5
			c0,0,0.7,0.1,1.3-0.5c0.9-0.7,2.8-2,4.9-4c2-2,3.2-3.8,3.9-4.8c0.3-0.5,0.5-0.9,0.5-1.3h0c0,0,0,0,0,0c0,0,0,0,0,0l0,0
			c0-0.4-0.2-0.9-0.5-1.3c-0.7-1-1.9-2.8-3.9-4.8c-2-2-4-3.4-4.9-4c-0.7-0.5-1.3-0.5-1.3-0.5c-0.4,0-0.9,0.2-1.3,0.5
			c-0.9,0.7-2.8,2-4.9,4c-2,2-3.2,3.8-3.9,4.8C295.8,99.7,295.6,100.1,295.6,100.6L295.6,100.6C295.6,100.6,295.6,100.6,295.6,100.6
			C295.6,100.6,295.6,100.6,295.6,100.6L295.6,100.6z"/>
		<linearGradient id="SVGID_4_" gradientUnits="userSpaceOnUse" x1="158.1652" y1="43.8039" x2="174.1653" y2="77.804">
			<stop  offset="0" style="stop-color:#F5B11E"/>
			<stop  offset="1" style="stop-color:#E36C26"/>
		</linearGradient>
		<path class="st4" d="M341.2,107.8c-57.9,11.8-116.5,12.5-164.1,10.2c-33.7-1.7-60.5-11-80.3-20c-8.2-3.7-16.1-5.9-23.6-8
			c-19.1-5.4-40.8,2.2-41.8,20.5c-1.3,24.5,31.5,23.6,31.5,23.6c-25.2-1.5-25.9-16.4-25.8-20.2c0.1-2.8,0.3-7.2,4.8-11.6
			c4.5-4.3,12.2-6.2,18-6.2c28.2,0,45.5,25.6,95.4,35.8c63.6,13,152.3,2.7,162.3,1.8c10-0.9,25.9-19.5,29.1-23.4c1.6-2,2-3.8,2-3.8
			S343.1,107.4,341.2,107.8z"/>
	</g>
	<linearGradient id="SVGID_5_" gradientUnits="userSpaceOnUse" x1="96.7297" y1="94.4009" x2="96.7297" y2="104.7545">
		<stop  offset="0" style="stop-color:#5F6970"/>
		<stop  offset="1" style="stop-color:#35434B"/>
	</linearGradient>
	<path class="st5" d="M104.6,37.8l-16.6,0v13.4H54.7v5.5H88v13.2H64v5.5h50.4c-0.4,6.1-5.5,15.5-12.7,24.7c4.2,1.8,8.8,3.6,13.6,5.3
		c10.4-13.6,16-28.4,16.5-35.6h-27.2V56.7h34.1v-5.5h-34.1V37.8z"/>
	<linearGradient id="SVGID_6_" gradientUnits="userSpaceOnUse" x1="72.2856" y1="121.3993" x2="72.2856" y2="110.7276">
		<stop  offset="0" style="stop-color:#5F6970"/>
		<stop  offset="1" style="stop-color:#35434B"/>
	</linearGradient>
	<path class="st6" d="M62.1,126.8c-9.8,0-20-4.8-20-16.6c0-8.6,8.6-12.3,13.2-13.6c-4.8,0.7-10,2.6-13.3,5.8
		c-4.5,4.3-4.7,8.7-4.8,11.6c-0.2,3.7,0.6,18.7,25.8,20.2c0,0-0.1,0-0.3,0c0.4,0,0.7,0,0.7,0c18.3,0,33-8.6,44.1-19.6
		c-4.4-2.3-8.5-4.6-12.4-6.7C84.9,118.3,72.5,126.8,62.1,126.8z"/>
	<polygon class="st7" points="326.6,38.4 329,38.4 329,44.9 330,44.9 330,38.4 332.5,38.4 332.5,37.6 326.6,37.6 	"/>
	<polygon class="st7" points="339.3,37.6 336.9,43.7 334.6,37.6 333.3,37.6 333.3,44.9 334.2,44.9 334.2,38.8 334.2,38.8 
		336.5,44.9 337.4,44.9 339.7,38.8 339.7,38.8 339.7,44.9 340.6,44.9 340.6,37.6 	"/>
	<g>
		<path class="st8" d="M64.5,169.5l-4.2,12.7h-5.4l13.7-40.4H75l13.8,40.4h-5.6l-4.3-12.7H64.5z M77.8,165.4l-4-11.6
			c-0.9-2.6-1.5-5-2.1-7.4h-0.1c-0.6,2.4-1.3,4.9-2,7.3l-4,11.7H77.8z"/>
		<path class="st8" d="M94.3,139.6h5.3v42.6h-5.3V139.6z"/>
		<path class="st8" d="M114.4,145c0.1,1.8-1.3,3.2-3.4,3.2c-1.9,0-3.2-1.4-3.2-3.2c0-1.9,1.4-3.3,3.3-3.3
			C113.1,141.7,114.4,143.1,114.4,145z M108.5,182.2v-29h5.3v29H108.5z"/>
		<path class="st8" d="M122.5,162.6c0-3.7-0.1-6.7-0.2-9.5h4.7l0.2,5h0.1c2.2-3.5,5.6-5.6,10.3-5.6c7,0,12.3,5.9,12.3,14.8
			c0,10.4-6.4,15.6-13.2,15.6c-3.8,0-7.2-1.7-8.9-4.6h-0.1v15.8h-5.2V162.6z M127.8,170.4c0,0.8,0.1,1.5,0.2,2.2
			c1,3.7,4.1,6.2,7.9,6.2c5.6,0,8.8-4.6,8.8-11.2c0-5.8-3.1-10.8-8.6-10.8c-3.6,0-7,2.6-8,6.5c-0.2,0.7-0.4,1.4-0.4,2.2V170.4z"/>
		<path class="st8" d="M172.7,182.2l-0.4-3.7h-0.2c-1.6,2.3-4.7,4.3-8.9,4.3c-5.9,0-8.9-4.1-8.9-8.3c0-7,6.2-10.9,17.5-10.8v-0.6
			c0-2.4-0.7-6.7-6.6-6.7c-2.7,0-5.5,0.8-7.6,2.2l-1.2-3.5c2.4-1.6,5.9-2.6,9.5-2.6c8.9,0,11,6.1,11,11.9v10.9c0,2.5,0.1,5,0.5,7
			H172.7z M172,167.4c-5.8-0.1-12.3,0.9-12.3,6.5c0,3.4,2.3,5,5,5c3.8,0,6.2-2.4,7-4.9c0.2-0.5,0.3-1.1,0.3-1.7V167.4z"/>
		<path class="st8" d="M187,153.2l6.4,17.2c0.7,1.9,1.4,4.2,1.9,5.9h0.1c0.5-1.7,1.1-4,1.9-6.1l5.8-17h5.6l-7.9,20.7
			c-3.8,10-6.4,15.1-10,18.2c-2.6,2.3-5.2,3.2-6.5,3.4l-1.3-4.4c1.3-0.4,3.1-1.3,4.6-2.6c1.4-1.1,3.2-3.2,4.4-5.9
			c0.2-0.5,0.4-1,0.4-1.3c0-0.3-0.1-0.7-0.4-1.4l-10.7-26.8H187z"/>
		<path class="st8" d="M209.8,179.1c0-2.2,1.5-3.8,3.6-3.8c2.1,0,3.5,1.6,3.5,3.8c0,2.2-1.4,3.8-3.6,3.8
			C211.2,182.9,209.8,181.2,209.8,179.1z"/>
		<path class="st8" d="M244.1,181.1c-1.4,0.7-4.4,1.7-8.3,1.7c-8.8,0-14.5-5.9-14.5-14.8c0-8.9,6.1-15.4,15.6-15.4
			c3.1,0,5.9,0.8,7.3,1.5l-1.2,4.1c-1.3-0.7-3.2-1.4-6.1-1.4c-6.7,0-10.3,4.9-10.3,11c0,6.7,4.3,10.9,10.1,10.9c3,0,5-0.8,6.5-1.4
			L244.1,181.1z"/>
		<path class="st8" d="M276.2,167.4c0,10.7-7.4,15.4-14.5,15.4c-7.9,0-13.9-5.8-13.9-14.9c0-9.7,6.4-15.4,14.4-15.4
			C270.6,152.5,276.2,158.6,276.2,167.4z M253.2,167.7c0,6.4,3.7,11.2,8.8,11.2c5,0,8.8-4.7,8.8-11.3c0-4.9-2.5-11.2-8.7-11.2
			C255.9,156.5,253.2,162.2,253.2,167.7z"/>
		<path class="st8" d="M282.9,161c0-3-0.1-5.5-0.2-7.9h4.6l0.2,4.7h0.2c1.6-2.8,4.3-5.3,9.1-5.3c4,0,7,2.4,8.2,5.8h0.1
			c0.9-1.6,2-2.9,3.2-3.8c1.7-1.3,3.7-2,6.4-2c3.8,0,9.5,2.5,9.5,12.6v17.1h-5.2v-16.4c0-5.6-2-8.9-6.3-8.9c-3,0-5.3,2.2-6.2,4.8
			c-0.2,0.7-0.4,1.7-0.4,2.6v17.9h-5.2v-17.4c0-4.6-2-8-6.1-8c-3.3,0-5.7,2.6-6.5,5.3c-0.3,0.8-0.4,1.7-0.4,2.6v17.5h-5.2V161z"/>
	</g>
</g>
</svg>
