<?xml version="1.0" encoding="utf-8"?>
<!-- Generator: Adobe Illustrator 19.1.0, SVG Export Plug-In . SVG Version: 6.00 Build 0)  -->
<svg version="1.1"
	 id="Layer_1" sodipodi:docname="Aura.svg" inkscape:version="0.91 r13725" xmlns:dc="http://purl.org/dc/elements/1.1/" xmlns:cc="http://creativecommons.org/ns#" xmlns:rdf="http://www.w3.org/1999/02/22-rdf-syntax-ns#" xmlns:svg="http://www.w3.org/2000/svg" xmlns:sodipodi="http://sodipodi.sourceforge.net/DTD/sodipodi-0.dtd" xmlns:inkscape="http://www.inkscape.org/namespaces/inkscape"
	 xmlns="http://www.w3.org/2000/svg" xmlns:xlink="http://www.w3.org/1999/xlink" x="0px" y="0px" viewBox="-32 -223.3 489 284.3"
	 style="enable-background:new -32 -223.3 489 284.3;" xml:space="preserve">
<style type="text/css">
	.st0{fill:#06397B;}
	.st1{fill:#FBCF38;}
	.st2{fill:#223D68;}
	.st3{fill:#D52003;}
</style>
<sodipodi:namedview  fit-margin-bottom="0" fit-margin-right="0" inkscape:current-layer="Layer_1" inkscape:window-maximized="0" inkscape:window-y="0" inkscape:window-x="0" inkscape:window-height="480" inkscape:window-width="756" inkscape:pageshadow="2" inkscape:pageopacity="0" fit-margin-left="0" fit-margin-top="0" inkscape:cy="-7.8689992" inkscape:cx="85.102001" inkscape:zoom="1.5657143" showgrid="false" guidetolerance="10" gridtolerance="10" objecttolerance="10" borderopacity="1" pagecolor="#ffffff" bordercolor="#666666" id="namedview68">
	</sodipodi:namedview>
<g id="g41" transform="translate(-102.398,-38.617001)">
	<g id="Aura_SVG">
		<rect id="rect44" x="70.4" y="-184.7" class="st0" width="489" height="284.3"/>
		<path id="path46" inkscape:connector-curvature="0" class="st1" d="M559.4,99.6h-489V-21c0,0,64.5-18,244.5-18
			c180,0,244.5,18,244.5,18V99.6z"/>
		<ellipse id="ellipse48" class="st1" cx="314.9" cy="-70.9" rx="103.2" ry="63.6"/>
		<g id="g50">
			<path id="path52" inkscape:connector-curvature="0" class="st2" d="M200.2,0.4l-63.6,55.3h18.3L168.4,44h63.3l14.7,11.8h17.9
				L200.2,0.4z M178.5,35.3l21.9-19.6l20.5,19.6H178.5z"/>
			<path id="path54" inkscape:connector-curvature="0" class="st2" d="M306,58.1c0,0,4.4,0,15.6,0c11.2,0,19.6-8,19.6-16.9
				c0-6.4,0-19.1,0-19.1H326c0,0,0,14.2,0,18c0,5.9-2.3,9.5-11.1,9.5h-8.8h0.7h-8.8c-8.7,0-11.1-3.6-11.1-9.5c0-3.8,0-18,0-18h-15.2
				c0,0,0,12.7,0,19.1c0,9,8.4,16.9,19.6,16.9c11.2,0,15.5,0,15.5,0S306,58.1,306,58.1z"/>
			<rect id="rect56" x="361.2" y="21.8" class="st2" width="17" height="37.2"/>
			<g id="g58">
				<path id="path60" inkscape:connector-curvature="0" class="st2" d="M377.2,40.3l-5.4-3.6c7.6-11.6,21-16.3,39.5-13.9l-0.9,6.4
					C394.4,27.2,383.5,30.8,377.2,40.3z"/>
			</g>
			<g id="g62">
				<path id="path64" inkscape:connector-curvature="0" class="st2" d="M479.1,52.8c-7.1,4.7-17.4,7.1-31.1,7.1
					c-13.4,0-22.3-1.9-26.6-5.6c-1.6-1.5-2.4-3.6-2.4-6.2c0-2.7,1.4-4.8,4.3-6.5c2.9-1.7,6.9-3.1,12.1-4c8.4-1.5,22.6-2.2,42.9-2.2
					v-3.6c0-2-0.8-3.5-2.4-4.3c-3.6-1.9-9.6-2.8-17.9-2.8c-8.1,0-13.8,0.9-17,2.7c-1.9,1-2.8,2.2-2.8,3.6v0.9h-16
					c-0.2-0.5-0.3-1.4-0.3-2.6c0-1.1,0.9-2.4,2.8-3.8c1.8-1.4,4.4-2.6,7.6-3.6c6.9-2,15.6-3,26.1-3h1.5c11.8,0,20.5,1,26.2,3.1
					c5.7,2.1,8.5,5.1,8.5,8.9v20.5c0,1,0.5,1.7,1.5,2.1c1,0.4,2.1,0.6,3.4,0.6c2.8,0,5.4-0.4,8-1.1v5.4c-3.8,1-8.3,1.5-13.4,1.5
					c-5.2,0-9-0.7-11.3-2C480.6,56.5,479.3,54.8,479.1,52.8z M478.4,41c-14.8,0-24.7,0.3-29.7,1c-5,0.7-8.5,1.5-10.4,2.5
					c-2,0.9-2.9,2.4-2.9,4.2c0,3.6,6.1,5.3,18.2,5.3c6.5,0,12.2-1,17.2-3c5.1-2.1,7.6-5,7.6-8.5V41z"/>
			</g>
		</g>
		<path id="path66" inkscape:connector-curvature="0" class="st3" d="M314.9-87.1c-180,0-244.5,18-244.5,18V-21
			c0,0,64.5-18,244.5-18c180,0,244.5,18,244.5,18v-48.1C559.4-69.1,494.9-87.1,314.9-87.1z"/>
	</g>
</g>
</svg>
