<?xml version="1.0" encoding="utf-8"?>
<!-- Generator: Adobe Illustrator 19.1.0, SVG Export Plug-In . SVG Version: 6.00 Build 0)  -->
<svg version="1.1"
	 id="Layer_1" sodipodi:docname="Diners.svg" inkscape:version="0.91 r13725" xmlns:dc="http://purl.org/dc/elements/1.1/" xmlns:cc="http://creativecommons.org/ns#" xmlns:rdf="http://www.w3.org/1999/02/22-rdf-syntax-ns#" xmlns:svg="http://www.w3.org/2000/svg" xmlns:sodipodi="http://sodipodi.sourceforge.net/DTD/sodipodi-0.dtd" xmlns:inkscape="http://www.inkscape.org/namespaces/inkscape"
	 xmlns="http://www.w3.org/2000/svg" xmlns:xlink="http://www.w3.org/1999/xlink" x="0px" y="0px" viewBox="-31 -226.1 452 289.1"
	 style="enable-background:new -31 -226.1 452 289.1;" xml:space="preserve">
<style type="text/css">
	.st0{fill:#404B9E;}
	.st1{fill:#FFFFFF;}
</style>
<sodipodi:namedview  fit-margin-bottom="0" fit-margin-right="0" inkscape:current-layer="Layer_1" inkscape:window-maximized="0" inkscape:window-y="0" inkscape:window-x="0" inkscape:window-height="480" inkscape:window-width="756" inkscape:pageshadow="2" inkscape:pageopacity="0" fit-margin-left="0" fit-margin-top="0" inkscape:cy="-4.9939997" inkscape:cx="84.720001" inkscape:zoom="1.5657143" showgrid="false" guidetolerance="10" gridtolerance="10" objecttolerance="10" borderopacity="1" pagecolor="#ffffff" bordercolor="#666666" id="namedview84">
	</sodipodi:namedview>
<g id="g77" transform="translate(-60.78,-36.197)">
	<g id="Diners_SVG">
		<path id="path80" inkscape:connector-curvature="0" class="st0" d="M342.7-189.8C419.8-188,481.8-124,481.8-45.3
			s-62,142.6-139.1,144.5l-172.7,0C92.3,98,29.8,33.7,29.8-45.3S92.3-188.6,170-189.9c0.8,0,1.6,0,2.3,0L342.7-189.8L342.7-189.8
			C342.7-189.8,342.7-189.8,342.7-189.8z"/>
		<path id="path82" inkscape:connector-curvature="0" class="st1" d="M175.9-187.2c-77.7,0-140.8,63.1-140.8,141.1
			c0,77.9,63,141,140.8,141c77.7,0,140.7-63.2,140.7-141C316.7-124.1,253.6-187.2,175.9-187.2z M149.4,37.6
			C114,26.3,88.2-7,88.2-46.2c0-39.2,25.6-72.5,61.2-83.8L149.4,37.6z M206.1,37.6v-167.5c37.2,11.3,61.2,44.5,61.2,83.8
			C267.3-7,243.3,26.3,206.1,37.6z"/>
	</g>
</g>
</svg>
