<?xml version="1.0" encoding="utf-8"?>
<!-- Generator: Adobe Illustrator 19.1.0, SVG Export Plug-In . SVG Version: 6.00 Build 0)  -->
<svg version="1.1"
	 id="Layer_1" sodipodi:docname="JCB.svg" inkscape:version="0.91 r13725" xmlns:dc="http://purl.org/dc/elements/1.1/" xmlns:cc="http://creativecommons.org/ns#" xmlns:rdf="http://www.w3.org/1999/02/22-rdf-syntax-ns#" xmlns:svg="http://www.w3.org/2000/svg" xmlns:sodipodi="http://sodipodi.sourceforge.net/DTD/sodipodi-0.dtd" xmlns:inkscape="http://www.inkscape.org/namespaces/inkscape"
	 xmlns="http://www.w3.org/2000/svg" xmlns:xlink="http://www.w3.org/1999/xlink" x="0px" y="0px" viewBox="-37 -275 340 338"
	 style="enable-background:new -37 -275 340 338;" xml:space="preserve">
<style type="text/css">
	.st0{fill:#00A0E3;}
	.st1{fill:#EC1C24;}
	.st2{fill:#00A551;}
	.st3{fill:#FFFFFF;}
</style>
<sodipodi:namedview  fit-margin-bottom="0" fit-margin-right="0" inkscape:current-layer="Layer_1" inkscape:window-maximized="0" inkscape:window-y="58" inkscape:window-x="599" inkscape:window-height="794" inkscape:window-width="1074" inkscape:pageshadow="2" inkscape:pageopacity="0" fit-margin-left="0" fit-margin-top="0" inkscape:cy="-4.5959997" inkscape:cx="-26.0627" inkscape:zoom="1.5657143" showgrid="false" guidetolerance="10" gridtolerance="10" objecttolerance="10" borderopacity="1" pagecolor="#ffffff" bordercolor="#666666" id="namedview108">
	</sodipodi:namedview>
<g id="g93" transform="translate(-143.07,-36.42)">
	<g id="JCB_SVG">
		<path id="path96" inkscape:connector-curvature="0" class="st0" d="M106.1,99.4h59.5c20.9,0,45.1-19.6,45.1-45.1v-292.9h-57.5
			c-26.8,0-47.1,17-47.1,46.4L106.1,99.4L106.1,99.4z"/>
		<path id="path98" inkscape:connector-curvature="0" class="st1" d="M223.8,99.4h59.5c20.9,0,45.1-19.6,45.1-45.1v-292.9h-57.5
			c-26.8,0-47.1,17-47.1,46.4L223.8,99.4L223.8,99.4z"/>
		<path id="path100" inkscape:connector-curvature="0" class="st2" d="M341.4,99.4H401c20.9,0,45.1-19.6,45.1-45.1v-292.9h-57.5
			c-26.8,0-47.1,17-47.1,46.4L341.4,99.4L341.4,99.4L341.4,99.4z"/>
		<path id="path102" inkscape:connector-curvature="0" class="st3" d="M122.4-61.4h-16.4c4.6,18.3,26.2,32.7,50.3,32.7
			c22.2,0,52.3-12.4,52.3-36v-42.5h-37.3v42.5c0,12.4-9.8,22.2-23.5,22.2C135.5-42.4,124.4-50.3,122.4-61.4L122.4-61.4z"/>
		<path id="path104" inkscape:connector-curvature="0" class="st3" d="M446-52.9c0,9.8-8.5,17.7-19.6,17.7H344v-71.9h82.4
			c9.8,0,18.3,8.5,18.3,18.3s-8.5,18.3-18.3,18.3C437.5-70.6,446-62.7,446-52.9z M375.4-74.5h25.5c6.5,0,12.4-5.9,12.4-12.4
			c0-6.5-5.9-12.4-12.4-12.4h-25.5V-74.5z M401.6-43.1c6.5,0,12.4-5.9,12.4-12.4c0-6.5-5.9-12.4-12.4-12.4h-26.1v24.9L401.6-43.1
			C401.6-43.1,401.6-43.1,401.6-43.1z"/>
		<path id="path106" inkscape:connector-curvature="0" class="st3" d="M325.8-47.7v12.4H263c-19.6,0-36-16.3-36-36
			c0-19.6,16.4-36,36-36h62.7v13.1c-15-3.3-29.4-5.2-36.6-5.2c-15.7,0-28.1,12.4-28.1,28.1s12.4,28.1,28.1,28.1
			C296.3-43.1,310.7-44.4,325.8-47.7z"/>
	</g>
</g>
</svg>
