<?xml version="1.0" encoding="utf-8"?>
<!-- Generator: Adobe Illustrator 20.1.0, SVG Export Plug-In . SVG Version: 6.00 Build 0)  -->
<svg version="1.1" id="Layer_1" xmlns="http://www.w3.org/2000/svg" xmlns:xlink="http://www.w3.org/1999/xlink" x="0px" y="0px"
	 viewBox="0 0 116.5 95.1" style="enable-background:new 0 0 116.5 95.1;" xml:space="preserve">
<style type="text/css">
	.st0{fill:none;}
	.st1{fill:#FF5F00;}
	.st2{fill:#EB001B;}
	.st3{fill:#F79E1B;}
</style>
<g>
	<rect x="-15.2" y="-15.2" class="st0" width="146.8" height="120.4"/>
	<g>
		<g>
			<path id="XMLID_1775_" d="M21.2,90.1v-6c0-2.3-1.4-3.8-3.8-3.8c-1.2,0-2.5,0.4-3.4,1.7c-0.7-1.1-1.7-1.7-3.2-1.7
				c-1,0-2,0.3-2.8,1.4v-1.2H6v9.6h2.1v-5.3c0-1.7,0.9-2.5,2.3-2.5c1.4,0,2.1,0.9,2.1,2.5v5.3h2.1v-5.3c0-1.7,1-2.5,2.3-2.5
				c1.4,0,2.1,0.9,2.1,2.5v5.3H21.2z M52.3,80.5h-3.4v-2.9h-2.1v2.9h-1.9v1.9h1.9v4.4c0,2.2,0.9,3.5,3.3,3.5c0.9,0,1.9-0.3,2.6-0.7
				l-0.6-1.8c-0.6,0.4-1.3,0.5-1.8,0.5c-1,0-1.4-0.6-1.4-1.6v-4.3h3.4V80.5z M70,80.3c-1.2,0-2,0.6-2.5,1.4v-1.2h-2.1v9.6h2.1v-5.4
				c0-1.6,0.7-2.5,2-2.5c0.4,0,0.9,0.1,1.3,0.2l0.6-2C71,80.4,70.4,80.3,70,80.3L70,80.3z M43.2,81.3c-1-0.7-2.4-1-3.9-1
				c-2.4,0-4,1.2-4,3.1c0,1.6,1.2,2.5,3.3,2.8l1,0.1c1.1,0.2,1.7,0.5,1.7,1c0,0.7-0.8,1.2-2.2,1.2c-1.4,0-2.5-0.5-3.2-1l-1,1.6
				c1.1,0.8,2.6,1.2,4.1,1.2c2.8,0,4.4-1.3,4.4-3.1c0-1.7-1.3-2.6-3.3-2.9l-1-0.1c-0.9-0.1-1.6-0.3-1.6-0.9c0-0.7,0.7-1.1,1.8-1.1
				c1.2,0,2.4,0.5,3,0.8L43.2,81.3z M98.9,80.3c-1.2,0-2,0.6-2.5,1.4v-1.2h-2.1v9.6h2.1v-5.4c0-1.6,0.7-2.5,2-2.5
				c0.4,0,0.9,0.1,1.3,0.2l0.6-2C99.9,80.4,99.3,80.3,98.9,80.3L98.9,80.3z M72.1,85.3c0,2.9,2,5,5.1,5c1.4,0,2.4-0.3,3.4-1.1
				l-1-1.7c-0.8,0.6-1.6,0.9-2.5,0.9c-1.7,0-2.9-1.2-2.9-3.1c0-1.8,1.2-3,2.9-3.1c0.9,0,1.7,0.3,2.5,0.9l1-1.7c-1-0.8-2-1.1-3.4-1.1
				C74.1,80.3,72.1,82.4,72.1,85.3L72.1,85.3z M91.6,85.3v-4.8h-2.1v1.2c-0.7-0.9-1.7-1.4-3-1.4c-2.7,0-4.8,2.1-4.8,5
				c0,2.9,2.1,5,4.8,5c1.4,0,2.4-0.5,3-1.4v1.2h2.1V85.3z M83.8,85.3c0-1.7,1.1-3.1,2.9-3.1c1.7,0,2.9,1.3,2.9,3.1
				c0,1.7-1.2,3.1-2.9,3.1C84.9,88.4,83.8,87,83.8,85.3L83.8,85.3z M58.7,80.3c-2.8,0-4.8,2-4.8,5c0,3,2,5,4.9,5
				c1.4,0,2.8-0.4,3.9-1.3l-1-1.5c-0.8,0.6-1.8,1-2.8,1c-1.3,0-2.6-0.6-2.9-2.3h7.1c0-0.3,0-0.5,0-0.8
				C63.3,82.3,61.4,80.3,58.7,80.3L58.7,80.3z M58.7,82.2c1.3,0,2.2,0.8,2.4,2.3h-5C56.4,83.1,57.2,82.2,58.7,82.2L58.7,82.2z
				 M110.9,85.3v-8.6h-2.1v5c-0.7-0.9-1.7-1.4-3-1.4c-2.7,0-4.8,2.1-4.8,5c0,2.9,2.1,5,4.8,5c1.4,0,2.4-0.5,3-1.4v1.2h2.1V85.3z
				 M103.1,85.3c0-1.7,1.1-3.1,2.9-3.1c1.7,0,2.9,1.3,2.9,3.1c0,1.7-1.2,3.1-2.9,3.1C104.2,88.4,103.1,87,103.1,85.3L103.1,85.3z
				 M32.9,85.3v-4.8h-2.1v1.2c-0.7-0.9-1.7-1.4-3-1.4c-2.7,0-4.8,2.1-4.8,5c0,2.9,2.1,5,4.8,5c1.4,0,2.4-0.5,3-1.4v1.2h2.1V85.3z
				 M25.2,85.3c0-1.7,1.1-3.1,2.9-3.1c1.7,0,2.9,1.3,2.9,3.1c0,1.7-1.2,3.1-2.9,3.1C26.3,88.4,25.2,87,25.2,85.3z"/>
		</g>
		<g id="XMLID_328_">
			<rect x="42.5" y="7.7" class="st1" width="31.5" height="56.6"/>
			<path id="XMLID_330_" class="st2" d="M44.5,36c0-11.5,5.4-21.7,13.7-28.3C52.1,2.9,44.4,0,36,0C16.1,0,0,16.1,0,36
				c0,19.9,16.1,36,36,36c8.4,0,16.1-2.9,22.2-7.7C49.9,57.7,44.5,47.5,44.5,36z"/>
			<path class="st3" d="M116.5,36c0,19.9-16.1,36-36,36c-8.4,0-16.1-2.9-22.2-7.7C66.6,57.7,72,47.5,72,36S66.6,14.3,58.2,7.7
				C64.4,2.9,72.1,0,80.5,0C100.4,0,116.5,16.1,116.5,36z"/>
		</g>
	</g>
</g>
</svg>
