<?xml version="1.0" encoding="utf-8"?>
<!-- Generator: Adobe Illustrator 19.1.0, SVG Export Plug-In . SVG Version: 6.00 Build 0)  -->
<svg version="1.1" baseProfile="tiny" id="Layer_1" xmlns="http://www.w3.org/2000/svg" xmlns:xlink="http://www.w3.org/1999/xlink"
	 x="0px" y="0px" viewBox="0 0 253 116.4" xml:space="preserve">
<g>
	<path fill-rule="evenodd" fill="#F78F20" d="M92.5,80.4c-1-4.5-3.1-8-6-10.5c-1-1.1-2.2-1.8-3.6-2.6c-0.7-0.4-1.2-0.7-2.1-1
		c-1.5-0.6-3.5-1.3-6-1c1.2-0.6,3.1-0.7,5-0.6c1.6,0.2,2.9,0.6,4.3,1c1.1,0.6,2.3,1.2,3.4,1.9C90.1,59.2,89,48,86,40.7
		c-3-7.6-7.3-13.9-12.9-18.8c-5.5-5.1-12.2-9-21-10.8c-4.3-0.9-9.8-0.8-13.8,0.1c-4.2,1.1-7.6,2.9-10.7,5.1
		c-2.8,2.5-5.5,5.1-7.4,8.5c-0.7,0.7-1,1.7-1.5,2.5c-0.4,1-0.8,1.9-1.3,2.8c-0.6,2-1.4,3.9-1.8,6.1c-1,4.1-1.2,9.8-0.5,14.2
		c0.5,4.8,1.9,8.6,3.4,12.4c0.9,1.8,1.7,3.6,2.8,5.3c1,1.7,2.2,3.1,3.3,4.6c2.5,2.7,5.2,5.3,8.4,7.4c6.4,4.2,13.8,7.4,23.8,7.9
		c0.2-0.4-0.3-1.2-0.4-1.8c-0.2-0.6-0.2-1.3-0.4-1.9c-0.1-1.4-0.2-2.9,0-4.3c0.4,0.1,0.4,0.6,0.6,0.9c0.2,0.2,0.3,0.6,0.6,0.8
		c0.3,0.7,0.8,1.1,1.1,1.8c0.9,1,1.7,2.2,2.9,2.9c1,1,2.2,1.6,3.4,2.4c1.2,0.6,2.3,1.5,3.8,1.9c2.5,1.3,5.8,1.8,9.2,2.3
		c3.4,0.5,6.6,1,9.7,1.8c2.8,1,5.7,1.9,8,3.4c1.2,0.7,2.4,1.4,3.5,2.3c0.5,0.4,1.2,0.7,1.6,1.3c0.7,0.3,1,0.9,1.6,1.1
		c1.9,1.9,3.9,3.7,5.5,5.9c0.7,1.2,1.6,2.2,2.1,3.6c0.5,0.5,0.6,1.3,1,1.9c0,0.7,0.7,1.6,0.1,2.1c-0.9,0.1-0.7-0.8-1.1-1.3
		c-0.3-0.5-0.7-0.9-0.9-1.5c-1.5-1.5-2.8-3.2-4.4-4.6c-1.6-1.4-3.2-2.8-5-3.9c-3.5-2.5-7.6-4.4-12.3-5.6c-4.7-1.3-9.9-1.9-15.9-1.5
		c-2.7,0.3-5.2,0.8-7.4,1.6c-2.4,0.6-5,0.9-7.7,1.3C46,101.5,34.5,99,26.9,95.3c-4.1-1.9-7.8-4.1-11-6.9c-1.7-1.3-3.2-2.9-4.6-4.4
		c-1.3-1.6-2.8-3.2-3.8-5.1c-1.3-1.7-2.1-3.9-3.3-5.8c-0.7-2.2-1.8-4.2-2.3-6.6c-0.8-2.2-1.2-4.8-1.5-7.5c0-0.8-0.4-2.2-0.4-3.4
		c0-0.1,0.1-0.2,0.1-0.4c-0.1-1.1-0.3-2.7,0-3.6C0.1,49,0.5,46,1,43.6c0.4-2.5,1.1-4.8,1.9-7c0.7-2.3,1.7-4.3,2.6-6.4
		c0.6-0.9,1.1-1.9,1.6-2.9c0.5-1,1.2-1.7,1.6-2.8c0.5-0.3,0.6-0.9,1-1.3c0.2-0.6,0.7-0.8,0.9-1.4c0.4-0.3,0.7-0.8,1-1.3
		c0.4-0.4,0.8-0.7,1-1.3c1.5-1.5,2.8-3.1,4.4-4.5c1.6-1.5,3.3-2.7,4.9-4.1c1-0.5,1.8-1.3,2.8-1.8c0.8-0.7,1.9-1.1,2.6-1.8
		c2.1-0.9,3.9-2.1,6.1-2.9c2-1,4.3-1.6,6.5-2.4c4.8-1.2,9.7-2.1,15.7-1.9c0.2,0,0.3-0.2,0.4,0c11.4,0.3,19.7,3.8,26.7,8.4
		c7,4.7,12.4,10.9,16.3,18.7c3.8,7.7,5.9,18.2,4.1,29.2c-0.9,5-2.4,9.4-4.1,13.4c-1,1.9-1.9,3.9-3.1,5.6c-0.5,0.9-1.1,1.8-1.8,2.6
		c-0.2,0.5-0.5,0.9-0.9,1.3c-0.1,0.2-0.3,0.4-0.5,0.6c-0.1,0.1-0.1,0.2-0.3,0.3C92.7,80.5,92.5,80.5,92.5,80.4z"/>
	<path fill-rule="evenodd" fill="#F78F20" d="M89.5,83.7c-1.5-0.6-1.7-2.4-2.4-3.8c-0.1-0.5-0.2-1.3,0-1.8c0.1,0,0.1-0.1,0.3-0.1
		c0.4-0.2,0.7,0.1,1.3,0.3c0.7,0.8,1.2,1.9,1.5,3.1C90.1,82.4,90.2,83.4,89.5,83.7z"/>
	<path fill-rule="evenodd" fill="#F78F20" d="M78.4,81.5c0-0.1,0.1-0.1,0.1,0c2.2,0.3,3.2,1.8,3.4,4.1C81.8,87,81,87.7,79.8,88
		c-3,0.1-4.7-2.7-3.6-5.5C76.8,82,77.2,81.4,78.4,81.5z"/>
	<path fill-rule="evenodd" fill="#0769B3" d="M144.2,76.1c0.4,1.5,1.1,2.6,2,3.6c0.9,1,1.9,1.9,3.1,2.5c1.2,0.7,2.4,1.3,3.9,1.8
		c0.7,0.3,1.4,0.5,2.3,0.6c0.6,0.3,1.3,0.5,1.4,1.4c0,1.1-0.7,1.4-1.6,1.6c-0.9-0.2-2-0.2-2.8-0.5c-1.9-0.2-3.4-0.8-5-1.4
		c-3.1-1.2-5.6-2.9-7.8-5c-0.4-0.7-1-1.3-1.5-2c-0.5-0.7-0.8-1.6-1.3-2.3c-3.7-0.5-6.3-2.2-8.5-4.1c-2.1-2.4-3.7-5.2-4.4-8.9
		c-0.8-3.6-0.5-8.1,0.4-11.5c2.1-6.7,6.4-11.2,14.6-11.8c2.3,0.1,4.2,0.3,6,1c1.8,0.7,3.5,1.9,4.9,3.1c0.1,0.1,0.2,0.1,0.2,0.3
		c0.3,0.4,1,1,1.4,1.5c0.1,0.1,0,0.3,0.1,0.4c0.2,0.2,0.4,0.3,0.5,0.5c0.1,0.1,0.1,0.3,0.1,0.4c0.1,0.2,0.2,0.4,0.4,0.6
		c0.1,0.1,0.2,0.2,0.2,0.3c0.2,0.4,0.3,0.9,0.5,1.4c0.2,0.5,0.5,0.9,0.6,1.4c0.5,1.4,0.8,3.1,1,4.9c0.5,5.1-0.5,9.6-2.4,12.9
		c-0.9,1.8-2.1,3.2-3.5,4.4C147.8,74.4,146,75.2,144.2,76.1z M138.2,44.5c-1.1,0.1-1.8,0.6-2.6,0.9c-0.6,0.5-1.3,0.9-1.8,1.6
		c-0.7,0.4-0.9,1.3-1.5,1.9c-0.5,1.2-1,2.6-1.3,4.1c-0.3,1.5-0.5,3.3-0.5,5c0,4.3,0.9,8.6,2.6,11.2c1,1.2,2.2,2.3,3.8,3
		c0.9,0.1,1.6,0.4,2.5,0.4c0.5-0.2,1.4,0,1.8-0.4c0.8,0.1,1-0.5,1.6-0.5c0.4-0.4,0.8-0.7,1.3-0.9c0.5-0.5,0.9-1,1.4-1.5
		c0.3-0.4,0.4-0.9,0.8-1.1c2.2-4.2,2.4-11.8,1-16.7c-0.5-1.8-1.3-3.2-2.1-4.4c-0.9-1-2-1.8-3.3-2.4c-1-0.2-1.9-0.5-3.3-0.4
		c-0.1,0-0.1,0-0.1,0.1C138.4,44.5,138.3,44.5,138.2,44.5z"/>
	<path fill-rule="evenodd" fill="#0769B3" d="M164.7,40.9c2,0.1,4.3-0.2,6,0.1c0.4,0.6,0.2,1.3,0.3,2c0.1,9.2,0,19.1,0,28.5
		c0,0.8,0,1.5,0,2.3c0,0.6,0.1,1.3-0.3,1.9c-0.9,0.2-2.1,0.1-3.3,0.1c-1.2,0-2.4,0.2-3.1-0.3c-0.2-11.1-0.2-23.1,0-34.3
		C164.4,41.1,164.5,41,164.7,40.9z"/>
	<path fill-rule="evenodd" fill="#0769B3" d="M179.7,40.9c2,0,3.9,0,5.9,0c0.5,0.7,0.7,1.8,0.9,2.9c1.8,6.8,3.5,13.5,5.1,20.5
		c0.4,0,0.3-0.4,0.4-0.6c0.2-0.2,0.1-0.6,0.3-0.8c0.1-0.6,0.4-0.8,0.4-1.5c0.4-0.8,0.6-2,1-2.9c0.5-2,1.2-3.9,1.8-5.9
		c0.6-2,1.3-3.9,1.8-6c0.8-1.7,1-4.1,2-5.6c0.8,0,1.7,0,2.5,0c0.9,1.7,1.2,4,2,5.8c0.5,2,1.2,3.9,1.8,5.9c1.2,3.9,2.5,7.8,3.6,11.8
		c0.5-0.8,0.5-2,0.9-2.9c0.2-1,0.4-2,0.8-2.9c1-4,1.9-8,3-11.8c0.4-2,0.8-4,1.5-5.8c1.5-0.2,3.7-0.2,5.1,0c0.1,1.5-0.6,3.1-1,4.4
		c-0.2,1.6-0.8,2.8-1.1,4.4c-0.9,2.8-1.6,5.9-2.5,8.7c-0.7,3-1.7,5.8-2.4,8.8c-0.5,1.4-0.8,2.9-1.3,4.4c-0.5,1.4-0.7,3-1.4,4.1
		c-1.2,0-2.3,0-3.5,0c-0.9-1.6-1.2-3.7-2-5.4c-1.7-5.5-3.7-10.9-5.4-16.4c-0.6,0.6-0.6,1.8-1,2.6c-0.3,0.9-0.5,1.9-0.9,2.8
		c-0.5,1.9-1.2,3.6-1.6,5.5c-0.7,1.7-1.2,3.6-1.8,5.5c-0.7,1.6-1,3.8-1.9,5.3c-0.9,0.3-2.4,0-3.5,0.1c-0.9-1-1-2.8-1.5-4.1
		c-0.4-1.4-0.7-3-1.3-4.3c-0.7-3.1-1.7-5.8-2.4-8.8c-0.9-2.8-1.7-5.8-2.5-8.7c-0.5-1.4-0.8-2.9-1.3-4.3c-0.2-1.5-1.2-2.9-0.9-4.5
		C179.4,41.1,179.6,41,179.7,40.9z"/>
	<path fill-rule="evenodd" fill="#0769B3" d="M229.3,40.9c2,0.1,4.3-0.2,6,0.1c0.4,1.3,0.3,2.7,0.3,4.1c0,8.5,0,17.6,0,26.3
		c0,1.4,0.2,2.8-0.3,4.1c-1.4,0.2-3.4,0.2-5,0.1c-0.5,0-1.1,0.1-1.4-0.3c-0.4-1.3-0.2-2.7-0.2-4.1c0-8.5,0-17.2,0-26.1
		c0-1.6-0.1-3.1,0.2-4.1C229,41.1,229.1,41,229.3,40.9z"/>
</g>
</svg>
