<?xml version="1.0" encoding="utf-8"?>
<!-- Generator: Adobe Illustrator 19.1.0, SVG Export Plug-In . SVG Version: 6.00 Build 0)  -->
<svg version="1.1" baseProfile="tiny" id="Ebene_1" xmlns="http://www.w3.org/2000/svg" xmlns:xlink="http://www.w3.org/1999/xlink"
	 x="0px" y="0px" viewBox="0 0 283.5 88.2" xml:space="preserve">
<g>
	<path fill="#F58220" d="M233.8,0.7c1,0.8,1.8,1.7,2.5,2.7c1.8,2.6,2.5,5.7,2.1,9.2h9.2l-13.8,38h13.8l13.8-38h17.7l4.3-11.8H233.8z
		"/>
	<path fill="#F58220" d="M233.1,5.6c-2.3-3.3-6.9-4.9-14.1-4.9h-16.8l-18.1,49.8h15.4l6.6-17.5c0.3,0.7,4.2,17.5,4.2,17.5h16.2
		c0,0-2.9-12.4-5.1-17.3c-0.6-1.3-1.1-2.7-1.9-3.9c4.6-1.7,11.2-5.3,13.9-12.7C235.1,12,235,8.3,233.1,5.6z M219.7,16.6
		c-1.5,4-4.1,6.4-9.2,6.4c0,0,0,0,0,0l-2.6,0l4.5-12h2.5C219.6,11,221.3,12.4,219.7,16.6z"/>
	<g>
		<g>
			<g>
				<path fill="#F58220" d="M78.4,0.7H49.8c-4.5,0-8.9,0-12.8,2c-3.9,2-7.4,6-10,13.9c-0.6,1.7-0.9,3.2-0.9,4.5
					c0,1.3,0.2,2.4,0.7,3.3c0.6,1.2,1.6,2.2,2.8,3.2c1.2,0.9,2.7,1.7,4.2,2.1c0.1,0,0.9,0.3,1.9,0.5c1,0.3,2.2,0.6,2.9,0.9
					c0.4,0.1,0.9,0.3,1.3,0.6c0.4,0.3,0.8,0.6,1.1,1.1c0.2,0.3,0.2,0.7,0.3,1c0,0.4-0.1,0.8-0.2,1.2c-0.4,1.1-0.9,1.8-2,2.2
					c-1.1,0.4-2.6,0.6-5,0.6H4.6L0,50.5h31.5c3,0,8.4,0,13.6-2.2c5.2-2.2,10.2-6.6,12.3-15.5c0.8-3.3,0.5-6-0.8-8.1
					c-1.3-2.1-3.7-3.7-7.1-4.7c0,0-0.8-0.2-1.7-0.5c-0.9-0.3-1.9-0.6-2.5-0.7c-0.9-0.3-1.6-0.8-2-1.4c-0.4-0.6-0.5-1.4-0.3-2.2
					c0.2-0.8,0.8-1.5,1.6-2c0.8-0.5,1.9-0.7,3.2-0.7h18.3c0.1-0.2,0.2-0.4,0.4-0.6C69.9,7.2,73.9,3.4,78.4,0.7z"/>
			</g>
			<path fill="#F58220" d="M106.4,5.4C103.9,1.8,99.7,0,93.7,0c-3.9,0-7.6,0.9-11.2,2.6c-5,2.4-9.6,6.4-13.4,11.7
				c-2.4,3.4-4.5,7.4-6.1,11.9c-3.1,8.4-3,15.2,0.1,19.7c1.8,2.5,5.5,5.6,13,5.6h0c13.7,0,23.9-9,30.4-26.7
				C108.3,20,110.5,11.3,106.4,5.4z M91.8,25.4C87.5,37.1,84.4,40,79.7,40c0,0,0,0,0,0c-4.5,0-6.1-2.9-1.9-14.5
				c3.2-8.7,7.3-14.2,12.3-14.2h0C94.8,11.3,95.9,14,91.8,25.4z"/>
		</g>
		<g>
			<g>
				<path fill="#F58220" d="M161.1,0.7H132c-8.1,0-14.2,4.1-17.1,11.8l-13.8,38h15.1l7.1-19.5l13.4,0l3.8-10.5l-13.3,0l2.1-6.1
					c0.4-1.1,1.5-1.9,3.1-1.9c0.9,0,10.7,0,15.8,0c0.1-0.2,0.2-0.4,0.4-0.6C151.9,7.2,156.7,3.4,161.1,0.7z"/>
			</g>
			<path fill="#F58220" d="M189,5.4c-2.5-3.6-6.7-5.4-12.7-5.4c-3.9,0-7.6,0.9-11.2,2.6c-5,2.4-9.6,6.4-13.4,11.7
				c-2.4,3.4-4.5,7.4-6.1,11.9c-3.1,8.4-3,15.2,0.1,19.7c1.8,2.5,5.5,5.6,13,5.6h0c13.7,0,23.9-9,30.4-26.7
				C190.9,20,193.1,11.3,189,5.4z M174.3,25.4c-4.3,11.7-7.4,14.6-12,14.6c0,0,0,0,0,0c-4.5,0-6.1-2.9-1.9-14.5
				c3.2-8.7,7.3-14.2,12.3-14.2c0,0,0,0,0,0C177.4,11.3,178.5,14,174.3,25.4z"/>
		</g>
	</g>
</g>
<g>
	<path fill="#414042" d="M20.2,80c-0.3,0.9-0.7,1.7-1.2,2.4c-0.5,0.7-1.1,1.3-1.7,1.9c-0.6,0.5-1.3,1-2,1.4c-0.7,0.4-1.5,0.7-2.3,1
		c-0.8,0.3-1.6,0.4-2.5,0.6c-0.9,0.1-1.8,0.2-2.8,0.2H1.1c-0.4,0-0.7-0.1-0.9-0.4c-0.2-0.2-0.2-0.7,0-1.2L8,64.3
		c0.2-0.6,0.5-1,0.9-1.2c0.4-0.2,0.8-0.4,1.2-0.4h6.2c1.5,0,2.8,0.1,3.7,0.4c1,0.3,1.7,0.6,2.2,1.2c0.5,0.5,0.8,1.2,0.9,2
		c0.1,0.8-0.1,1.7-0.4,2.8c-0.2,0.6-0.5,1.2-0.8,1.7c-0.3,0.5-0.7,1-1.2,1.4c-0.5,0.4-0.9,0.8-1.5,1.1c-0.5,0.3-1.1,0.6-1.8,0.8
		c0.7,0.1,1.2,0.3,1.7,0.7c0.5,0.3,0.8,0.7,1.1,1.2c0.3,0.5,0.4,1.1,0.4,1.8C20.6,78.4,20.5,79.2,20.2,80z M14.9,80.2
		c0.2-0.6,0.3-1.1,0.3-1.5c0-0.5-0.2-0.8-0.4-1.1c-0.3-0.3-0.6-0.5-1.2-0.7c-0.5-0.2-1.2-0.2-2.1-0.2h-3l-2.6,7h3.6
		c0.7,0,1.3-0.1,1.8-0.2c0.5-0.1,1-0.4,1.5-0.7c0.5-0.3,0.9-0.6,1.2-1.1C14.4,81.2,14.7,80.8,14.9,80.2z M17.5,69.6
		c0.2-0.5,0.3-0.9,0.3-1.3c0-0.4-0.1-0.7-0.3-1c-0.2-0.3-0.5-0.5-0.9-0.6c-0.4-0.1-1-0.2-1.8-0.2h-2.5l-2.3,6.4h2.8
		c0.7,0,1.3-0.1,1.8-0.3c0.5-0.2,0.9-0.4,1.3-0.7c0.4-0.3,0.7-0.7,1-1.1C17.1,70.5,17.3,70.1,17.5,69.6z"/>
	<path fill="#414042" d="M44.2,85.6c0,0.5,0,0.8-0.1,1.1c-0.1,0.3-0.2,0.5-0.4,0.6c-0.2,0.1-0.5,0.2-0.8,0.2c-0.4,0-0.9,0-1.5,0
		c-0.6,0-1.2,0-1.5,0c-0.4,0-0.6-0.1-0.8-0.1c-0.2-0.1-0.3-0.1-0.3-0.2c0-0.1-0.1-0.2,0-0.4l0.1-5h-9.3l-3.3,4.8
		c-0.1,0.2-0.2,0.3-0.4,0.4c-0.1,0.1-0.3,0.2-0.5,0.3c-0.2,0.1-0.5,0.1-0.8,0.1c-0.3,0-0.8,0-1.3,0c-0.6,0-1,0-1.4-0.1
		c-0.3,0-0.5-0.1-0.6-0.3c-0.1-0.1,0-0.4,0.1-0.6c0.1-0.3,0.4-0.6,0.7-1.1l15.6-21.9c0.2-0.2,0.3-0.4,0.5-0.5
		c0.2-0.1,0.3-0.2,0.6-0.3c0.2-0.1,0.6-0.1,1-0.1c0.4,0,0.9,0,1.6,0c0.8,0,1.3,0,1.8,0c0.4,0,0.8,0.1,1,0.1c0.2,0.1,0.4,0.2,0.4,0.3
		c0.1,0.1,0.1,0.3,0.1,0.6L44.2,85.6z M39.4,67.4L39.4,67.4L32.1,78h7L39.4,67.4z"/>
	<path fill="#414042" d="M69.8,85.7c-0.1,0.3-0.3,0.6-0.4,0.8c-0.2,0.2-0.4,0.4-0.6,0.6c-0.2,0.2-0.5,0.3-0.7,0.3
		c-0.3,0.1-0.5,0.1-0.8,0.1h-2.1c-0.4,0-0.8,0-1.1-0.1c-0.3-0.1-0.5-0.3-0.7-0.5c-0.2-0.2-0.3-0.6-0.4-1c-0.1-0.4-0.2-0.9-0.3-1.6
		l-1.9-11.6c-0.1-0.7-0.2-1.4-0.3-2.2c-0.1-0.8-0.1-1.6-0.1-2.3h0c-0.3,0.9-0.6,1.8-0.9,2.7c-0.3,0.9-0.6,1.9-1,2.8l-4.7,12.9
		c0,0.1-0.1,0.2-0.2,0.3c-0.1,0.1-0.3,0.2-0.5,0.3c-0.2,0.1-0.4,0.1-0.8,0.2c-0.3,0-0.7,0.1-1.1,0.1c-0.4,0-0.8,0-1.1-0.1
		c-0.3,0-0.5-0.1-0.6-0.2c-0.1-0.1-0.2-0.2-0.3-0.3c0-0.1,0-0.2,0-0.3l8.1-22.2c0.2-0.6,0.6-1,1-1.3c0.5-0.3,0.9-0.4,1.5-0.4h2.7
		c0.5,0,0.9,0,1.2,0.1c0.3,0.1,0.5,0.2,0.7,0.4c0.2,0.2,0.3,0.5,0.4,0.8c0.1,0.3,0.2,0.8,0.3,1.3l1.5,9c0.1,0.5,0.2,1.1,0.2,1.6
		c0.1,0.5,0.2,1.1,0.2,1.6c0.1,0.5,0.1,1,0.2,1.6c0.1,0.5,0.1,1,0.1,1.5h0c0.3-0.9,0.6-1.8,0.9-2.8c0.3-1,0.7-1.9,1-2.8l4.2-11.6
		c0-0.1,0.1-0.2,0.2-0.3c0.1-0.1,0.3-0.2,0.5-0.3c0.2-0.1,0.5-0.1,0.8-0.2c0.3,0,0.7,0,1.1,0c0.4,0,0.8,0,1.1,0
		c0.3,0,0.5,0.1,0.6,0.2c0.1,0.1,0.2,0.2,0.2,0.3c0,0.1,0,0.2,0,0.3L69.8,85.7z"/>
	<path fill="#414042" d="M94.7,86.7c-0.1,0.1-0.1,0.3-0.2,0.4c-0.1,0.1-0.3,0.2-0.5,0.3c-0.2,0.1-0.5,0.1-0.9,0.2
		c-0.4,0-0.8,0.1-1.3,0.1c-0.8,0-1.4,0-1.8-0.1c-0.3-0.1-0.6-0.2-0.7-0.3c-0.1-0.1-0.2-0.3-0.2-0.5L85.9,75l-4.3,11.7
		c-0.1,0.1-0.1,0.3-0.2,0.4c-0.1,0.1-0.3,0.2-0.5,0.3c-0.2,0.1-0.5,0.1-0.8,0.2c-0.3,0-0.7,0.1-1.2,0.1c-0.5,0-0.9,0-1.2-0.1
		c-0.3,0-0.5-0.1-0.7-0.2c-0.2-0.1-0.3-0.2-0.3-0.3c0-0.1,0-0.2,0-0.4l8.5-23.3c0.1-0.1,0.1-0.3,0.3-0.4c0.1-0.1,0.3-0.2,0.5-0.2
		c0.2-0.1,0.5-0.1,0.8-0.2c0.3,0,0.7-0.1,1.2-0.1c0.5,0,0.9,0,1.2,0.1c0.3,0,0.5,0.1,0.7,0.2c0.2,0.1,0.3,0.1,0.3,0.2
		c0,0.1,0,0.2,0,0.4L86.3,74l11.1-10.5c0.2-0.2,0.3-0.3,0.5-0.4c0.2-0.1,0.4-0.2,0.6-0.3c0.2-0.1,0.5-0.1,0.8-0.1c0.3,0,0.7,0,1.2,0
		c0.5,0,0.9,0,1.2,0.1c0.3,0,0.6,0.1,0.7,0.2c0.2,0.1,0.3,0.2,0.3,0.3c0,0.1,0,0.2,0,0.3c-0.1,0.2-0.2,0.4-0.4,0.7
		c-0.2,0.2-0.5,0.6-1,1.1l-10,8.9l3.3,11.2c0.1,0.5,0.1,0.9,0.1,1C94.7,86.5,94.7,86.6,94.7,86.7z"/>
	<path fill="#414042" d="M104.8,86.8c0,0.1-0.1,0.2-0.2,0.3c-0.1,0.1-0.3,0.2-0.5,0.2c-0.2,0.1-0.5,0.1-0.8,0.2
		c-0.3,0-0.7,0.1-1.2,0.1c-0.5,0-0.9,0-1.2-0.1c-0.3,0-0.6-0.1-0.7-0.2c-0.2-0.1-0.3-0.1-0.3-0.2c0-0.1,0-0.2,0-0.3l8.5-23.4
		c0-0.1,0.1-0.2,0.2-0.3c0.1-0.1,0.3-0.2,0.5-0.2c0.2-0.1,0.5-0.1,0.8-0.2c0.3,0,0.7-0.1,1.2-0.1c0.5,0,0.9,0,1.2,0.1
		c0.3,0,0.5,0.1,0.7,0.2c0.2,0.1,0.3,0.1,0.3,0.2c0,0.1,0,0.2,0,0.3L104.8,86.8z"/>
	<path fill="#414042" d="M132.7,85.7c-0.1,0.3-0.3,0.6-0.4,0.8c-0.2,0.2-0.4,0.4-0.6,0.6c-0.2,0.2-0.5,0.3-0.7,0.3
		c-0.3,0.1-0.5,0.1-0.8,0.1H128c-0.4,0-0.8,0-1.1-0.1c-0.3-0.1-0.5-0.3-0.7-0.5c-0.2-0.2-0.3-0.6-0.4-1c-0.1-0.4-0.2-0.9-0.3-1.6
		l-1.9-11.6c-0.1-0.7-0.2-1.4-0.3-2.2c-0.1-0.8-0.1-1.6-0.1-2.3h0c-0.3,0.9-0.6,1.8-0.9,2.7c-0.3,0.9-0.6,1.9-1,2.8l-4.7,12.9
		c0,0.1-0.1,0.2-0.2,0.3c-0.1,0.1-0.3,0.2-0.5,0.3c-0.2,0.1-0.5,0.1-0.8,0.2c-0.3,0-0.7,0.1-1.1,0.1c-0.4,0-0.8,0-1.1-0.1
		c-0.3,0-0.5-0.1-0.6-0.2c-0.1-0.1-0.2-0.2-0.3-0.3c0-0.1,0-0.2,0-0.3l8.1-22.2c0.2-0.6,0.6-1,1-1.3c0.5-0.3,0.9-0.4,1.5-0.4h2.7
		c0.5,0,0.9,0,1.2,0.1c0.3,0.1,0.5,0.2,0.7,0.4c0.2,0.2,0.3,0.5,0.4,0.8c0.1,0.3,0.2,0.8,0.3,1.3l1.5,9c0.1,0.5,0.2,1.1,0.2,1.6
		c0.1,0.5,0.2,1.1,0.2,1.6c0.1,0.5,0.1,1,0.2,1.6c0.1,0.5,0.1,1,0.2,1.5h0c0.3-0.9,0.6-1.8,0.9-2.8c0.3-1,0.7-1.9,1-2.8l4.2-11.6
		c0-0.1,0.1-0.2,0.2-0.3c0.1-0.1,0.3-0.2,0.5-0.3c0.2-0.1,0.5-0.1,0.8-0.2c0.3,0,0.7,0,1.1,0c0.4,0,0.8,0,1.1,0
		c0.3,0,0.5,0.1,0.6,0.2c0.1,0.1,0.2,0.2,0.2,0.3c0,0.1,0,0.2,0,0.3L132.7,85.7z"/>
	<path fill="#414042" d="M166.7,66.6c-0.1,0.4-0.3,0.7-0.4,1c-0.1,0.3-0.3,0.5-0.4,0.6c-0.1,0.2-0.2,0.3-0.3,0.3
		c-0.1,0.1-0.2,0.1-0.3,0.1c-0.2,0-0.4-0.1-0.7-0.3c-0.3-0.2-0.7-0.5-1.2-0.7c-0.5-0.3-1.2-0.5-1.9-0.7c-0.8-0.2-1.7-0.3-2.8-0.3
		c-1.2,0-2.4,0.2-3.5,0.6c-1.1,0.4-2.2,1-3.1,1.8c-1,0.8-1.8,1.7-2.6,2.7c-0.8,1.1-1.4,2.2-1.8,3.5c-0.5,1.4-0.8,2.7-0.8,3.7
		c0,1.1,0.2,2,0.6,2.7c0.4,0.7,1,1.3,1.8,1.6c0.8,0.4,1.8,0.6,2.9,0.6c0.6,0,1.1-0.1,1.7-0.2c0.6-0.1,1.2-0.3,1.7-0.6l2.1-5.7h-4.7
		c-0.2,0-0.4-0.1-0.4-0.4c0-0.3,0.1-0.8,0.3-1.5c0.1-0.4,0.3-0.7,0.4-0.9c0.1-0.2,0.2-0.4,0.4-0.6c0.1-0.1,0.2-0.3,0.3-0.3
		c0.1-0.1,0.2-0.1,0.3-0.1h8.4c0.2,0,0.4,0,0.5,0.1c0.1,0.1,0.2,0.2,0.3,0.3c0.1,0.1,0.1,0.3,0.1,0.5c0,0.2-0.1,0.4-0.2,0.7
		l-3.6,9.8c-0.1,0.4-0.3,0.7-0.6,1c-0.2,0.3-0.6,0.5-1.1,0.7c-0.5,0.2-1,0.3-1.7,0.5c-0.7,0.2-1.4,0.3-2.1,0.5
		c-0.7,0.1-1.4,0.2-2.1,0.3c-0.7,0.1-1.4,0.1-2.1,0.1c-2,0-3.6-0.3-5-0.9c-1.4-0.6-2.4-1.4-3.1-2.5c-0.7-1.1-1-2.4-1.1-3.9
		c0-1.5,0.3-3.3,1.1-5.3c0.7-2,1.7-3.8,2.9-5.5c1.2-1.6,2.6-3,4.1-4.1c1.5-1.1,3.2-2,5-2.6c1.8-0.6,3.7-0.9,5.6-0.9
		c1.1,0,2,0.1,2.8,0.2c0.8,0.1,1.5,0.3,2.1,0.5c0.6,0.2,1,0.4,1.4,0.7c0.3,0.2,0.6,0.5,0.7,0.6c0.1,0.2,0.1,0.4,0.1,0.8
		C167.1,65.4,167,65.9,166.7,66.6z"/>
</g>
</svg>
